# xmcd
#
# Track frame offsets: 
#        150
#        3869
#        18672
#        34242
#        48482
#        64043
#        81892
#        101430
#        113351
#        147061
#        164361
#        171972
#        197462
#        243317
#        269040
#        284268
#        301702
#        314529
#        331178
#
# Disc length: 4745 seconds
#
# Revision: 0
# Processed by: cddbd v1.5.1PL0 Copyright (c) Steve Scherf et al.
# Submitted via: ExactAudioCopy v0.95a5
#
DISCID=fa128713
DTITLE=Steamhammer - Steamhammer Mountains
DYEAR=1969
DGENRE=Blues
TTITLE0=Water(Part One)
TTITLE1=Junior's Wailing
TTITLE2=Lost You Too
TTITLE3=She Is The Fire
TTITLE4=You'll Never Know
TTITLE5=Even The Clock
TTITLE6=Down The Highway
TTITLE7=On Your Road
TTITLE8=Twenty-Four Hours
TTITLE9=When All Your Friends Are Gone
TTITLE10=Water(Part Two)
TTITLE11=I Wouldn't Have Though (Goobers Song)
TTITLE12=Riding On The L&N
TTITLE13=Hold That Train
TTITLE14=Levinia
TTITLE15=Henry Lane
TTITLE16=Leader Of The Ring
TTITLE17=Walking Down The Road
TTITLE18=Mountains
EXTD=
EXTT0=
EXTT1=
EXTT2=
EXTT3=
EXTT4=
EXTT5=
EXTT6=
EXTT7=
EXTT8=
EXTT9=
EXTT10=
EXTT11=
EXTT12=
EXTT13=
EXTT14=
EXTT15=
EXTT16=
EXTT17=
EXTT18=
PLAYORDER=
